<svg width="100" height="100" viewBox="0 0 100 100" fill="none" xmlns="http://www.w3.org/2000/svg">
<g id="phone">
<path id="Vector" d="M91.6665 70.5011V83.0011C91.6712 84.1615 91.4335 85.3101 90.9686 86.3733C90.5037 87.4366 89.8219 88.391 88.9668 89.1755C88.1117 89.96 87.1022 90.5572 86.0029 90.929C84.9037 91.3008 83.7389 91.4388 82.5831 91.3344C69.7616 89.9412 57.4456 85.56 46.6248 78.5427C36.5574 72.1455 28.022 63.6101 21.6248 53.5427C14.583 42.6727 10.2008 30.2969 8.83314 17.4177C8.72901 16.2655 8.86595 15.1042 9.23522 14.0078C9.60449 12.9114 10.198 11.9039 10.978 11.0495C11.758 10.195 12.7073 9.51234 13.7656 9.0449C14.8239 8.57745 15.9679 8.33548 17.1248 8.33439H29.6248C31.6469 8.31449 33.6073 9.03055 35.1405 10.3491C36.6737 11.6677 37.6751 13.4987 37.9581 15.5011C38.4857 19.5013 39.4642 23.4291 40.8748 27.2094C41.4354 28.7007 41.5567 30.3215 41.2244 31.8797C40.8921 33.4379 40.1201 34.8682 38.9998 36.0011L33.7081 41.2927C39.6396 51.7242 48.2767 60.3612 58.7081 66.2927L63.9998 61.0011C65.1327 59.8808 66.5629 59.1088 68.1211 58.7764C69.6793 58.4441 71.3001 58.5655 72.7915 59.1261C76.5718 60.5367 80.4995 61.5151 84.4998 62.0427C86.5238 62.3283 88.3723 63.3477 89.6937 64.9073C91.0151 66.4668 91.7172 68.4576 91.6665 70.5011Z" stroke="white" stroke-width="8.33333" stroke-linecap="round" stroke-linejoin="round"/>
</g>
</svg>
